<svg width="40" height="40" viewBox="0 0 40 40" fill="none" xmlns="http://www.w3.org/2000/svg">
  <rect width="40" height="40" rx="8" fill="#eca829"/>
  <path d="M10 20C10 14.4772 14.4772 10 20 10C22.3869 10 24.6761 10.8429 26.4142 12.3432L24.2929 14.4645C23.1053 13.5491 21.6158 13 20 13C16.134 13 13 16.134 13 20C13 23.866 16.134 27 20 27C21.6158 27 23.1053 26.4509 24.2929 25.5355L26.4142 27.6568C24.6761 29.1571 22.3869 30 20 30C14.4772 30 10 25.5228 10 20Z" fill="white"/>
  <path d="M30 20C30 22.7614 27.7614 25 25 25V15C27.7614 15 30 17.2386 30 20Z" fill="white"/>
</svg>